<svg width="100%" height="100%" viewBox="0 0 334 48" fill="none" xmlns="http://www.w3.org/2000/svg">
<path d="M83.5761 0.524275V6.28697C82.003 5.95955 80.6816 5.89406 79.4861 5.89406C76.34 5.89406 75.2703 6.87634 75.2703 9.95415V12.3116H83.5761V17.6814H75.2703V47.2131H69.1668V17.6814H63.1892V12.3116H69.1668V8.64444C69.1668 2.6198 71.8096 0.000396225 77.9131 0.000396225C79.9266 0.000396225 81.7513 0.131365 83.5761 0.524275Z" fill="#17151A"/>
<path d="M91.5746 12.3116V18.2708C94.6578 13.6213 98.9995 11.1984 104.033 11.1984C105.103 11.1984 105.921 11.3293 106.739 11.7877V18.4672C105.04 17.9433 103.656 17.7469 102.334 17.7469C96.5455 17.7469 91.5746 22.8547 91.5746 30.3201V47.2131H85.4711V12.3116H91.5746Z" fill="#17151A"/>
<path d="M114.339 12.3116V47.2131H108.235V12.3116H114.339ZM114.339 7.72765H108.235V0.000396225H114.339V7.72765Z" fill="#17151A"/>
<path d="M154.942 30.6617H124.425C124.425 37.5377 129.27 42.0562 136.506 42.0562C141.855 42.0562 145.882 39.8951 147.266 36.0315H154.376C151.985 43.6278 145.504 47.9498 136.506 47.9498C125.117 47.9498 117.944 40.7465 117.944 29.4175C117.944 18.0231 125.18 10.6233 136.506 10.6233C148.084 10.6233 154.942 17.6957 154.942 29.4175V30.6617ZM124.551 26.1433H148.398C147.455 20.1841 143.05 16.5169 136.506 16.5169C130.025 16.5169 125.558 20.1186 124.551 26.1433Z" fill="#17151A"/>
<path d="M164.107 12.3116V18.4017C167.253 14.0797 171.972 11.1984 178.013 11.1984C188.269 11.1984 190.849 17.354 190.849 26.5874V47.2131H184.745V27.1113C184.745 19.9734 182.732 16.5682 176.628 16.5682C169.455 16.5682 164.107 21.807 164.107 29.6652V47.2131H158.003V12.3116H164.107Z" fill="#17151A"/>
<path d="M237.151 0L227.767 47.2127H221.385L222.5 41.844C218.347 46.035 213.628 47.9996 208.154 47.9996C198.967 47.9996 193.43 42.4988 193.43 33.9858C193.43 20.9542 203.938 10.673 215.893 10.673C221.304 10.673 225.772 13.096 227.534 17.1561L231.145 0H237.151ZM215.264 16.5667C206.643 16.5667 199.974 23.5736 199.974 33.0035C199.974 38.8317 203.56 42.1059 210.041 42.1059C218.599 42.1059 225.394 35.7539 225.394 26.0621C225.394 20.2339 221.745 16.5667 215.264 16.5667Z" fill="#17151A"/>
<path d="M247.428 0.000396225V47.2131H237.151V0L247.428 0.000396225Z" fill="#17151A"/>
<path d="M290.04 35.2304C285.573 43.2851 277.582 48 267.514 48C256.629 48 250.336 42.5647 250.336 33.5933C250.336 19.5139 261.285 10.0841 275.254 10.0841C286.328 10.0841 292.243 15.2574 292.243 24.6873C292.243 26.4554 292.054 28.6164 291.299 31.8906H262.166C261.977 32.611 261.914 33.2658 261.914 33.9207C261.914 37.9153 264.683 40.4037 269.024 40.4037C273.051 40.4037 276.449 38.5046 278.4 35.2304H290.04ZM263.99 24.5563H281.105C281.105 19.8414 278.903 17.4184 273.995 17.4184C269.087 17.4184 265.249 20.1688 263.99 24.5563Z" fill="#17151A"/>
<path d="M331.798 35.2304C327.33 43.2851 319.339 48 309.272 48C298.386 48 292.094 42.5647 292.094 33.5933C292.094 19.5139 303.042 10.0841 317.011 10.0841C328.085 10.0841 334 15.2574 334 24.6873C334 26.4554 333.811 28.6164 333.056 31.8906H303.923C303.734 32.611 303.671 33.2658 303.671 33.9207C303.671 37.9153 306.44 40.4037 310.782 40.4037C314.809 40.4037 318.207 38.5046 320.157 35.2304H331.798ZM305.748 24.5563H322.863C322.863 19.8414 320.66 17.4184 315.753 17.4184C310.845 17.4184 307.006 20.1688 305.748 24.5563Z" fill="#17151A"/>
<path fill-rule="evenodd" clip-rule="evenodd" d="M54.1622 47.2131H36.1081V37.7705H54.1622V47.2131Z" fill="#17151A"/>
<path fill-rule="evenodd" clip-rule="evenodd" d="M0 36.0044L31.5946 23.0724V12.9326L0 0V10.1398L19.2084 18.0024L0 25.8646V36.0044Z" fill="#17151A"/>
</svg>
